<svg width="52" height="37" viewBox="0 0 52 37" fill="none" xmlns="http://www.w3.org/2000/svg">
<g clip-path="url(#clip0_1_77)">
<path fill-rule="evenodd" clip-rule="evenodd" d="M48.3557 15.7438V35.8955C48.3546 36.0554 48.2905 36.2086 48.1774 36.3217C48.0643 36.4349 47.9111 36.4989 47.7511 36.5H42.5411C42.3811 36.4989 42.228 36.4349 42.1148 36.3217C42.0017 36.2086 41.9376 36.0554 41.9366 35.8955V20.9077C43.0029 19.8665 44.3086 18.6071 45.6436 17.3224L47.7427 15.2988C47.935 15.4612 48.1384 15.6099 48.3515 15.7438H48.3557ZM12.8553 10.2861C11.708 10.2023 10.5554 10.345 9.46308 10.7059H9.43789C7.37842 11.4022 5.65134 12.8393 4.59226 14.7378C3.53319 16.6364 3.21776 18.8609 3.70728 20.9791C3.8679 21.6984 4.12047 22.394 4.45877 23.0488L0.336087 26.9952C0.257894 27.0738 0.214005 27.1802 0.214005 27.2911C0.214005 27.402 0.257894 27.5085 0.336087 27.5871L2.67031 30.0305C2.74897 30.1087 2.85538 30.1526 2.96629 30.1526C3.0772 30.1526 3.18361 30.1087 3.26227 30.0305L7.22961 26.2017C7.83112 26.6281 8.48426 26.9765 9.1734 27.2387C9.98259 27.5403 10.8309 27.7241 11.6924 27.7844C13.1274 27.8757 14.5629 27.6129 15.8725 27.0192C17.1821 26.4254 18.3257 25.5189 19.2027 24.3794C20.0798 23.2399 20.6633 21.9023 20.902 20.4844C21.1407 19.0664 21.0273 17.6115 20.5717 16.2476C20.0192 14.6033 18.9909 13.1601 17.6171 12.101C16.2434 11.0419 14.586 10.4146 12.8553 10.2987V10.2861ZM7.65784 13.7749C8.34981 13.1696 9.15439 12.7068 10.0255 12.4129C10.8966 12.119 11.8171 11.9999 12.7343 12.0623C13.6515 12.1247 14.5474 12.3674 15.3707 12.7765C16.194 13.1857 16.9285 13.7532 17.5321 14.4466V14.4676C18.1265 15.1556 18.5813 15.9527 18.8714 16.8144C19.4622 18.5737 19.3319 20.4955 18.5088 22.159C17.6857 23.8224 16.2371 25.0919 14.48 25.6895C13.6097 25.979 12.6914 26.0959 11.7763 26.0338C10.859 25.9752 9.96264 25.734 9.13982 25.3243C8.3233 24.9097 7.59589 24.3392 6.99871 23.645L6.97772 23.6198C6.38124 22.9325 5.92487 22.1353 5.63428 21.2729V21.252C5.34944 20.388 5.23537 19.4768 5.29842 18.5693C5.359 17.6524 5.6001 16.7564 6.00788 15.933C6.41566 15.1095 6.98208 14.3746 7.67463 13.7707L7.65784 13.7749ZM19.6606 10.3827L24.2787 6.35236C27.3266 9.34152 30.2822 12.952 33.3007 15.9328L44.2876 4.87878L40.74 1.33965L51.794 0.5L51.1727 11.7639L47.7721 8.36332C45.3329 10.8361 39.5645 16.2812 37.1212 18.7246C34.0354 21.8103 32.5619 21.8691 29.4761 18.7792L24.2619 12.9814L22.6414 14.4172C22.4699 14.0294 22.2779 13.6511 22.0662 13.2837C21.7048 12.659 21.2829 12.0712 20.8068 11.5288C20.4476 11.1202 20.0589 10.7385 19.6438 10.3869L19.6606 10.3827ZM27.3938 23.54V35.8955C27.3927 36.0554 27.3287 36.2086 27.2155 36.3217C27.1024 36.4349 26.9493 36.4989 26.7893 36.5H21.5792C21.4192 36.4989 21.2661 36.4349 21.153 36.3217C21.0398 36.2086 20.9758 36.0554 20.9747 35.8955V26.9154C21.2902 26.5907 21.5873 26.2488 21.8647 25.891C22.3366 25.2816 22.7459 24.6261 23.0864 23.9346C23.6542 22.8009 24.0301 21.5808 24.1989 20.3241L25.5886 21.8691L25.7691 22.058C26.2847 22.5797 26.827 23.0744 27.3938 23.54ZM16.8982 29.6275V35.8955C16.8971 36.0554 16.833 36.2086 16.7199 36.3217C16.6068 36.4349 16.4536 36.4989 16.2936 36.5H11.0962C10.9362 36.4989 10.7831 36.4349 10.6699 36.3217C10.5568 36.2086 10.4928 36.0554 10.4917 35.8955V30.2782C10.9196 30.3538 11.3512 30.407 11.7847 30.4377C13.317 30.5342 14.8536 30.3346 16.3104 29.85C16.5119 29.7786 16.7303 29.7072 16.9108 29.6275H16.8982ZM37.8726 24.4594V35.8955C37.8715 36.0554 37.8075 36.2086 37.6944 36.3217C37.5812 36.4349 37.4281 36.4989 37.2681 36.5H32.0581C31.8981 36.4989 31.7449 36.4349 31.6318 36.3217C31.5187 36.2086 31.4546 36.0554 31.4535 35.8955V25.6517C32.0789 25.7916 32.7188 25.8564 33.3595 25.8448C34.9662 25.8291 36.5339 25.3479 37.8726 24.4594Z" fill="black"/>
</g>
<defs>
<clipPath id="clip0_1_77">
<rect width="51.5881" height="36" fill="white" transform="translate(0.205948 0.5)"/>
</clipPath>
</defs>
</svg>
