<svg width="36" height="36" viewBox="0 0 36 36" fill="none" xmlns="http://www.w3.org/2000/svg">
<path d="M16.25 7.5C14.9147 7.5 13.6687 7.87275 12.6065 8.522C12.4967 7.93472 12.2966 7.368 12.0132 6.842C13.3455 6.10473 14.8471 5.72788 16.3696 5.7487C17.8922 5.76952 19.3829 6.18728 20.6945 6.96071C22.0061 7.73414 23.0932 8.83645 23.8483 10.1587C24.6034 11.4809 25.0004 12.9773 25 14.5H29.3767C30.0726 14.5005 30.7399 14.7772 31.2318 15.2695C31.7237 15.7617 32 16.4291 32 17.125V27.625C32 28.3212 31.7234 28.9889 31.2311 29.4812C30.7389 29.9734 30.0712 30.25 29.375 30.25H18.875C18.1788 30.25 17.5111 29.9734 17.0188 29.4812C16.5266 28.9889 16.25 28.3212 16.25 27.625V23.25C15.0327 23.2515 13.8285 22.9982 12.715 22.5063C12.7377 21.9113 12.75 21.2865 12.75 20.625V20.5638C13.779 21.1588 14.9742 21.5 16.25 21.5V17.125C16.25 16.4288 16.5266 15.7611 17.0188 15.2688C17.5111 14.7766 18.1788 14.5 18.875 14.5H23.25C23.25 12.6435 22.5125 10.863 21.1997 9.55025C19.887 8.2375 18.1065 7.5 16.25 7.5ZM24.825 16.25C24.4808 17.931 23.6505 19.4739 22.4372 20.6872C21.2239 21.9005 19.681 22.7308 18 23.075V27.625C18 27.8571 18.0922 28.0796 18.2563 28.2437C18.4204 28.4078 18.6429 28.5 18.875 28.5H29.375C29.6071 28.5 29.8296 28.4078 29.9937 28.2437C30.1578 28.0796 30.25 27.8571 30.25 27.625V17.125C30.25 16.8929 30.1578 16.6704 29.9937 16.5063C29.8296 16.3422 29.6071 16.25 29.375 16.25H24.825ZM23.0295 16.25H18.875C18.6429 16.25 18.4204 16.3422 18.2563 16.5063C18.0922 16.6704 18 16.8929 18 17.125V21.2795C19.2107 20.9658 20.3154 20.3341 21.1998 19.4498C22.0841 18.5654 22.7158 17.4607 23.0295 16.25Z" fill="black"/>
<path d="M8.515 4.21876C8.66055 4.34559 8.76006 4.517 8.79805 4.70628C8.83603 4.89556 8.81035 5.09209 8.725 5.26526C8.71018 5.31645 8.70253 5.36946 8.70225 5.42276C8.70225 5.53301 8.73025 5.74301 8.9945 6.00551C9.12225 6.13326 9.22025 6.22426 9.327 6.32401C9.4145 6.40451 9.50725 6.48851 9.6245 6.60401C9.852 6.82101 10.0918 7.07651 10.307 7.39676C10.7533 8.06701 11 8.90526 11 10.125C11 11.6178 10.447 12.89 9.58425 13.6705L9.69625 13.8C10.1863 14.402 10.4715 15.1825 10.65 15.9525C11 17.475 11 19.3055 11 20.5813V20.625C11 25.5023 10.3368 28.269 9.607 29.851C9.2395 30.6473 8.84925 31.1548 8.5115 31.4733C8.37419 31.605 8.22277 31.7212 8.06 31.8198C7.98547 31.8646 7.90767 31.9038 7.82725 31.937C7.82725 31.937 7.6295 32 7.5 32C7.3705 32 7.17275 31.937 7.17275 31.937C7.09146 31.9058 7.01349 31.8665 6.94 31.8198C6.77723 31.7212 6.62581 31.605 6.4885 31.4733C6.15075 31.153 5.7605 30.6473 5.393 29.851C4.66325 28.269 4 25.5023 4 20.625V20.5813C4 19.3038 4 17.475 4.35 15.9525C4.5285 15.1825 4.81375 14.402 5.30375 13.8C5.33875 13.7563 5.37725 13.7125 5.41575 13.6705C4.553 12.89 4 11.6178 4 10.125C4 9.55451 4.15225 8.87376 4.36225 8.24551C4.57225 7.61551 4.86625 6.96451 5.20575 6.43951C5.61 5.75701 6.17875 5.18476 6.61975 4.79976C6.86153 4.58712 7.11385 4.38679 7.37575 4.19951L7.42825 4.16451L7.444 4.15226L7.44925 4.14876L7.45275 4.14701C7.61322 4.04004 7.80453 3.98908 7.99694 4.00206C8.18936 4.01504 8.3721 4.09121 8.51675 4.21876H8.515ZM7.50525 12.75C8.1755 12.7483 9.25 11.9975 9.25 10.125C9.25 9.15726 9.05925 8.68301 8.84925 8.36801C8.72157 8.18402 8.57429 8.01445 8.41 7.86226L8.193 7.65926C8.05125 7.52626 7.885 7.37226 7.7555 7.24451C7.5641 7.0551 7.3998 6.84015 7.26725 6.60576C7.04449 6.83998 6.84846 7.09823 6.68275 7.37576C6.43775 7.75201 6.19975 8.26826 6.023 8.80026C5.841 9.34276 5.75 9.82226 5.75 10.125C5.75 12.001 6.82625 12.75 7.5 12.75H7.5035H7.50525ZM6.66 14.906C6.41325 15.2088 6.205 15.6918 6.05625 16.3463C5.7535 17.6553 5.75 19.3003 5.75 20.625C5.75 25.3728 6.39925 27.856 6.982 29.1178C7.1745 29.5325 7.35475 29.809 7.5 29.9928C7.64525 29.809 7.82725 29.5325 8.018 29.1178C8.60075 27.856 9.25 25.3728 9.25 20.625C9.25 19.3003 9.2465 17.6553 8.94375 16.3463C8.79325 15.6918 8.58675 15.2088 8.34 14.906C8.24347 14.7752 8.11655 14.6699 7.97019 14.5992C7.82384 14.5284 7.66246 14.4944 7.5 14.5H7.4965C7.3346 14.4948 7.17387 14.5291 7.02815 14.5998C6.88243 14.6705 6.75608 14.7756 6.66 14.906Z" fill="black"/>
</svg>
