<svg width="36" height="36" viewBox="0 0 36 36" fill="none" xmlns="http://www.w3.org/2000/svg">
<g clip-path="url(#clip0_1_83)">
<path d="M14.8673 3.6655L11.9153 6.6175H7.50924C3.6 6.6175 3.096 6.6319 2.9952 6.7327C2.8944 6.8263 2.88 7.1791 2.88 9.4975V12.1615L3.0456 12.2695C3.1968 12.3631 4.4568 12.3775 14.3921 12.3631C25.3642 12.3415 25.573 12.3415 25.6738 12.2047C25.8106 12.0103 25.8034 11.8303 25.6306 11.6575C25.4866 11.5135 25.393 11.5135 14.5793 11.5135H3.672V9.4615V7.4095H17.9993H32.3266V9.4615V11.5135H31.477C30.5122 11.5135 30.3106 11.5855 30.3106 11.9455C30.3106 12.3199 30.4978 12.3775 31.7218 12.3775C32.6578 12.3775 32.8378 12.3559 32.9674 12.2479C33.1114 12.1255 33.1186 12.0751 33.1186 9.5695C33.1258 8.1655 33.1258 6.9775 33.1186 6.9271C33.1186 6.8839 33.0682 6.7903 33.0034 6.7327C32.9026 6.6319 32.3986 6.6175 28.4893 6.6175H24.0829L21.1309 3.6655C18.7981 1.3327 18.1429 0.713503 17.9989 0.713503C17.8549 0.713503 17.2001 1.33306 14.8673 3.6655ZM20.4829 4.1695L22.9309 6.6175H17.9993H13.0676L15.5156 4.1695C16.862 2.8231 17.978 1.7215 17.9996 1.7215C18.0212 1.7215 19.1369 2.8231 20.4829 4.1695Z" fill="black"/>
<path d="M1.5696 2.61467C0.971999 2.83067 0.568799 3.28428 0.439198 3.88907C0.381598 4.13387 0.359998 7.70471 0.359998 15.286C0.359998 27.266 0.338398 26.7044 0.748799 27.2444C0.856799 27.3812 1.0944 27.5828 1.2816 27.6908L1.62 27.8924L7.14925 27.914L12.6713 27.9284V30.3764V32.8244H11.9873C11.0225 32.8244 11.0153 32.8316 11.0153 34.034C11.0153 34.7468 11.0369 34.9844 11.1305 35.114L11.2385 35.2724H17.567C23.2186 35.2724 23.9026 35.258 24.0034 35.1572C24.097 35.0708 24.1186 34.862 24.1258 34.1708C24.1402 33.1196 24.133 33.1124 23.9962 32.9468C23.9026 32.846 23.7586 32.8244 23.1826 32.8244H22.477V30.3764V27.9284H23.1394C23.8954 27.9284 24.1186 27.8348 24.1186 27.5036C24.1186 27.0716 24.8314 27.1004 13.1465 27.122C7.24285 27.1364 2.2392 27.122 2.0232 27.1004C1.728 27.0644 1.584 26.9996 1.4256 26.8484L1.224 26.6468V24.4076V22.1684H1.8792C2.664 22.1684 2.808 22.1108 2.808 21.7724C2.808 21.434 2.664 21.3764 1.8792 21.3764H1.224V12.6C1.224 3.87395 1.224 3.83075 1.368 3.64355C1.4544 3.53555 1.6416 3.42035 1.7856 3.37715C1.9584 3.33395 3.98161 3.30515 7.46605 3.30515H12.8873L12.9953 3.13235C13.1249 2.93795 13.0457 2.63556 12.8513 2.55635C12.7865 2.53476 10.2809 2.51315 7.28605 2.51315C2.9304 2.52107 1.7784 2.54268 1.5696 2.61467ZM21.671 30.3761V32.8241H17.5673H13.4633V30.3761V27.9281H17.567H21.6706V30.3761H21.671ZM23.327 34.0621V34.4797H17.6033H11.8797V34.0621V33.6517H17.6033H23.327V34.0621Z" fill="black"/>
<path d="M22.6573 2.64311C22.5133 2.80151 22.4989 3.09671 22.6213 3.21911C22.6861 3.28391 24.0541 3.30551 28.3306 3.30551C31.959 3.30551 34.0398 3.33431 34.2126 3.37751C34.3566 3.42071 34.5438 3.53591 34.6302 3.64391C34.7742 3.83111 34.7742 3.87431 34.7742 12.6003V21.3764H34.119C33.3342 21.3764 33.1902 21.434 33.1902 21.7724C33.1902 22.1108 33.3342 22.1684 34.119 22.1684H34.7742V24.3932C34.7742 26.6036 34.7742 26.6252 34.6158 26.8124C34.3854 27.0788 34.047 27.1292 32.5998 27.1364C31.5414 27.1364 31.311 27.158 31.2174 27.2516C31.059 27.4028 31.0734 27.6116 31.2534 27.7916C31.3974 27.9356 31.4622 27.9356 32.8878 27.914C34.371 27.8924 34.3782 27.8924 34.7238 27.6908C35.1558 27.4388 35.4582 27.0212 35.559 26.5532C35.667 26.042 35.667 4.39307 35.559 3.88187C35.4582 3.42107 35.1198 2.96747 34.7022 2.72987L34.3782 2.54987L28.5754 2.52827C23.0101 2.51387 22.7725 2.51387 22.6573 2.64311Z" fill="black"/>
<path d="M27.5098 10.0588C27.4738 10.1308 27.1642 10.93 26.8258 11.83L26.2066 13.4788V16.6032V19.7208H15.2777C4.7736 19.7208 4.3344 19.728 4.2264 19.8504C4.1184 19.9728 4.104 20.268 4.104 22.6224V25.2576L4.2624 25.3656C4.4064 25.4664 5.5728 25.4808 15.3137 25.4808H26.2066V30.2612C26.2066 34.5161 26.221 35.0561 26.3218 35.1569C26.4874 35.3297 29.1658 35.3297 29.3314 35.1569C29.4538 35.0345 29.4538 35.2505 29.4466 28.562V25.4808H30.5194C31.4338 25.4808 31.6138 25.4592 31.7434 25.3512C31.8946 25.2288 31.8946 25.1856 31.8946 22.608C31.9018 20.2395 31.8874 19.98 31.7794 19.858C31.6714 19.7355 31.5418 19.7211 30.5482 19.7211H29.4466V16.5888L29.4538 13.4568L28.9066 12.0024C28.093 9.84959 28.1362 9.92879 27.8338 9.92879C27.661 9.92915 27.5602 9.97235 27.5098 10.0588ZM28.1002 12.1971C28.5178 13.2771 28.5466 13.1691 27.8338 13.1691C27.4954 13.1691 27.2146 13.1548 27.2146 13.1332C27.2146 13.0611 27.8122 11.5131 27.8338 11.5347C27.8482 11.542 27.9706 11.8444 28.1002 12.1971ZM28.6546 16.8768V19.7208H27.8266H26.9986V16.8768V14.0328H27.8266H28.6546V16.8768ZM7.76124 21.6572C7.76844 22.3268 7.81164 22.8092 7.85484 22.8668C7.98444 23.018 8.40204 22.982 8.49564 22.8236C8.53164 22.7444 8.56764 22.2044 8.56764 21.5996V20.5124H9.79164H11.0156V21.578C11.0156 22.7732 11.0732 22.9604 11.4476 22.9604C11.822 22.9604 11.8796 22.7732 11.8796 21.578V20.5124H13.1036H14.3276V21.65C14.3276 22.442 14.3564 22.8164 14.414 22.874C14.558 23.018 14.9612 22.982 15.0476 22.8236C15.0836 22.7444 15.1196 22.2044 15.1196 21.5996V20.5124H16.3436H17.5676V21.578C17.5676 22.7732 17.6252 22.9604 17.9996 22.9604C18.374 22.9604 18.4316 22.7732 18.4316 21.578V20.5124H19.6556H20.8796V21.5996C20.8796 22.2044 20.9156 22.7444 20.9516 22.8236C21.0596 23.0108 21.4916 23.0108 21.5996 22.8236C21.6356 22.7444 21.6716 22.2044 21.6716 21.5996V20.5124H22.8956H24.1196V21.578C24.1196 22.7732 24.1772 22.9604 24.5516 22.9604C24.926 22.9604 24.9836 22.7732 24.9836 21.578V20.5124L26.2076 20.5196L27.4316 20.5268V21.6068C27.4316 22.2116 27.4676 22.7444 27.5036 22.8236C27.6116 23.0108 28.0436 23.0108 28.1516 22.8236C28.1876 22.7444 28.2236 22.2116 28.2236 21.6068V20.5268L29.6636 20.5196L31.1036 20.5124V22.5644V24.6164H17.9993H4.896V22.5644V20.5124L6.3216 20.5268L7.74 20.5484L7.76124 21.6572ZM28.6546 28.3241V31.1681H27.8266H26.9986V28.3241V25.4801H27.8266H28.6546V28.3241ZM28.6546 33.2561V34.4801H27.8266H26.9986V33.2561V32.0321H27.8266H28.6546V33.2561Z" fill="black"/>
<path d="M2.9952 13.2843C2.8944 13.3779 2.88 13.7307 2.88 16.0491V18.7056L3.0384 18.8136C3.1824 18.9144 3.9024 18.9288 9.40284 18.9288C15.2057 18.9288 15.6161 18.9216 15.7601 18.7992C15.9041 18.6768 15.9041 18.6192 15.9113 16.1208C15.9185 14.7168 15.9185 13.5288 15.9185 13.4784C15.9113 13.4352 15.8609 13.3416 15.7961 13.284C15.6953 13.1832 15.0185 13.1688 9.39564 13.1688C3.7728 13.1691 3.096 13.1835 2.9952 13.2843ZM15.1193 16.0128V18.0648H9.39564H3.672V16.0128V13.9608H9.39564H15.1193V16.0128Z" fill="black"/>
<path d="M18.1577 13.2844L17.9993 13.3924V16.0056C17.9993 18.144 18.0209 18.6408 18.1001 18.7556C18.2009 18.8852 18.3305 18.8924 21.4117 18.914L24.6229 18.9356L24.8029 18.7556C25.0261 18.5324 25.0261 18.4604 24.8029 18.2444L24.6301 18.0644H21.7069H18.7909L18.8053 16.0268L18.8269 13.9965L21.7789 13.9821C24.6877 13.9605 24.7309 13.9605 24.8602 13.8093C25.0186 13.6077 25.0186 13.4925 24.8386 13.3125C24.7018 13.1757 24.601 13.1685 21.5053 13.1685C18.7409 13.1692 18.3017 13.1836 18.1577 13.2844Z" fill="black"/>
</g>
<defs>
<clipPath id="clip0_1_83">
<rect width="36" height="36" fill="white"/>
</clipPath>
</defs>
</svg>
