<svg width="36" height="36" viewBox="0 0 36 36" fill="none" xmlns="http://www.w3.org/2000/svg">
<g clip-path="url(#clip0_1_44)">
<path d="M0 0V29.6129H14.5161V32.5161C14.5161 34.4375 16.0786 36 18 36C19.9214 36 21.4839 34.4375 21.4839 32.5161V29.6129H36V0H0ZM20.3226 32.5161C20.3226 33.797 19.2809 34.8387 18 34.8387C16.7191 34.8387 15.6774 33.797 15.6774 32.5161V30.7742H20.3226V32.5161ZM20.3226 29.6129H15.6774V20.9032H20.3226V29.6129ZM20.4654 19.7419H15.5346L14.5806 16.4026L17.4194 13.158V15.2036C16.7452 15.444 16.2581 16.0827 16.2581 16.8387C16.2581 17.7991 17.0396 18.5806 18 18.5806C18.9604 18.5806 19.7419 17.7991 19.7419 16.8387C19.7419 16.0827 19.2548 15.444 18.5806 15.2036V13.158L21.4194 16.4026L20.4654 19.7419ZM18 16.2581C18.3205 16.2581 18.5806 16.5182 18.5806 16.8387C18.5806 17.1592 18.3205 17.4194 18 17.4194C17.6795 17.4194 17.4194 17.1592 17.4194 16.8387C17.4194 16.5182 17.6795 16.2581 18 16.2581ZM18.8071 11.6541C24.0004 12.0542 28.1328 16.261 28.422 21.4845H27.2903V24.9683H30.7742V21.4845H29.5833C29.3667 17.1325 26.7515 13.4123 23.0284 11.6135H27.2903V12.7748H30.7742V9.2909H27.2903V10.4522H8.70968V9.2909H5.22581V12.7748H8.70968V11.6135H12.9716C9.24852 13.4123 6.63329 17.1325 6.41671 21.4845H5.22581V24.9683H8.70968V21.4845H7.578C7.86716 16.261 11.999 12.0542 17.1929 11.6541L13.2904 16.1135L14.5161 20.4033V26.129H3.48387V8.12903H32.5161V26.129H21.4839V20.4033L22.7096 16.1135L18.8071 11.6541ZM28.4516 23.8065V22.6452H29.6129V23.8065H28.4516ZM28.4516 11.6129V10.4516H29.6129V11.6129H28.4516ZM7.54839 10.4516V11.6129H6.3871V10.4516H7.54839ZM7.54839 22.6452V23.8065H6.3871V22.6452H7.54839ZM34.8387 28.4516H21.4839V27.2903H33.6774V6.96774H2.32258V27.2903H14.5161V28.4516H1.16129V5.80645H34.8387V28.4516ZM34.8387 4.64516H1.16129V1.16129H34.8387V4.64516Z" fill="black"/>
<path d="M3.48388 2.32259H2.32259V3.48388H3.48388V2.32259Z" fill="black"/>
<path d="M5.80645 2.32259H4.64516V3.48388H5.80645V2.32259Z" fill="black"/>
<path d="M8.12903 2.32259H6.96774V3.48388H8.12903V2.32259Z" fill="black"/>
<path d="M23.8064 30.7742H22.6452V31.9355H23.8064V30.7742Z" fill="black"/>
<path d="M26.129 30.7742H24.9677V31.9355H26.129V30.7742Z" fill="black"/>
<path d="M28.4516 30.7742H27.2903V31.9355H28.4516V30.7742Z" fill="black"/>
<path d="M8.70968 30.7742H7.54839V31.9355H8.70968V30.7742Z" fill="black"/>
<path d="M11.0323 30.7742H9.87097V31.9355H11.0323V30.7742Z" fill="black"/>
<path d="M13.3548 30.7742H12.1935V31.9355H13.3548V30.7742Z" fill="black"/>
</g>
<defs>
<clipPath id="clip0_1_44">
<rect width="36" height="36" fill="white"/>
</clipPath>
</defs>
</svg>
